<svg version="1.1" xmlns="http://www.w3.org/2000/svg" xmlns:xlink="http://www.w3.org/1999/xlink" width="857.51904296875" height="445"><defs/><g><text fill="#eeeeee" stroke="none" font-family="Arial" font-size="24px" font-style="normal" font-weight="normal" text-decoration="none" x="0" y="0">UNREGISTERED</text><text fill="#eeeeee" stroke="none" font-family="Arial" font-size="24px" font-style="normal" font-weight="normal" text-decoration="none" x="0" y="30">UNREGISTERED</text><text fill="#eeeeee" stroke="none" font-family="Arial" font-size="24px" font-style="normal" font-weight="normal" text-decoration="none" x="0" y="60">UNREGISTERED</text><text fill="#eeeeee" stroke="none" font-family="Arial" font-size="24px" font-style="normal" font-weight="normal" text-decoration="none" x="0" y="90">UNREGISTERED</text><text fill="#eeeeee" stroke="none" font-family="Arial" font-size="24px" font-style="normal" font-weight="normal" text-decoration="none" x="0" y="120">UNREGISTERED</text><text fill="#eeeeee" stroke="none" font-family="Arial" font-size="24px" font-style="normal" font-weight="normal" text-decoration="none" x="0" y="150">UNREGISTERED</text><text fill="#eeeeee" stroke="none" font-family="Arial" font-size="24px" font-style="normal" font-weight="normal" text-decoration="none" x="0" y="180">UNREGISTERED</text><text fill="#eeeeee" stroke="none" font-family="Arial" font-size="24px" font-style="normal" font-weight="normal" text-decoration="none" x="0" y="210">UNREGISTERED</text><text fill="#eeeeee" stroke="none" font-family="Arial" font-size="24px" font-style="normal" font-weight="normal" text-decoration="none" x="0" y="240">UNREGISTERED</text><text fill="#eeeeee" stroke="none" font-family="Arial" font-size="24px" font-style="normal" font-weight="normal" text-decoration="none" x="0" y="270">UNREGISTERED</text><text fill="#eeeeee" stroke="none" font-family="Arial" font-size="24px" font-style="normal" font-weight="normal" text-decoration="none" x="0" y="300">UNREGISTERED</text><text fill="#eeeeee" stroke="none" font-family="Arial" font-size="24px" font-style="normal" font-weight="normal" text-decoration="none" x="0" y="330">UNREGISTERED</text><text fill="#eeeeee" stroke="none" font-family="Arial" font-size="24px" font-style="normal" font-weight="normal" text-decoration="none" x="0" y="360">UNREGISTERED</text><text fill="#eeeeee" stroke="none" font-family="Arial" font-size="24px" font-style="normal" font-weight="normal" text-decoration="none" x="0" y="390">UNREGISTERED</text><text fill="#eeeeee" stroke="none" font-family="Arial" font-size="24px" font-style="normal" font-weight="normal" text-decoration="none" x="0" y="420">UNREGISTERED</text><text fill="#eeeeee" stroke="none" font-family="Arial" font-size="24px" font-style="normal" font-weight="normal" text-decoration="none" x="200" y="0">UNREGISTERED</text><text fill="#eeeeee" stroke="none" font-family="Arial" font-size="24px" font-style="normal" font-weight="normal" text-decoration="none" x="200" y="30">UNREGISTERED</text><text fill="#eeeeee" stroke="none" font-family="Arial" font-size="24px" font-style="normal" font-weight="normal" text-decoration="none" x="200" y="60">UNREGISTERED</text><text fill="#eeeeee" stroke="none" font-family="Arial" font-size="24px" font-style="normal" font-weight="normal" text-decoration="none" x="200" y="90">UNREGISTERED</text><text fill="#eeeeee" stroke="none" font-family="Arial" font-size="24px" font-style="normal" font-weight="normal" text-decoration="none" x="200" y="120">UNREGISTERED</text><text fill="#eeeeee" stroke="none" font-family="Arial" font-size="24px" font-style="normal" font-weight="normal" text-decoration="none" x="200" y="150">UNREGISTERED</text><text fill="#eeeeee" stroke="none" font-family="Arial" font-size="24px" font-style="normal" font-weight="normal" text-decoration="none" x="200" y="180">UNREGISTERED</text><text fill="#eeeeee" stroke="none" font-family="Arial" font-size="24px" font-style="normal" font-weight="normal" text-decoration="none" x="200" y="210">UNREGISTERED</text><text fill="#eeeeee" stroke="none" font-family="Arial" font-size="24px" font-style="normal" font-weight="normal" text-decoration="none" x="200" y="240">UNREGISTERED</text><text fill="#eeeeee" stroke="none" font-family="Arial" font-size="24px" font-style="normal" font-weight="normal" text-decoration="none" x="200" y="270">UNREGISTERED</text><text fill="#eeeeee" stroke="none" font-family="Arial" font-size="24px" font-style="normal" font-weight="normal" text-decoration="none" x="200" y="300">UNREGISTERED</text><text fill="#eeeeee" stroke="none" font-family="Arial" font-size="24px" font-style="normal" font-weight="normal" text-decoration="none" x="200" y="330">UNREGISTERED</text><text fill="#eeeeee" stroke="none" font-family="Arial" font-size="24px" font-style="normal" font-weight="normal" text-decoration="none" x="200" y="360">UNREGISTERED</text><text fill="#eeeeee" stroke="none" font-family="Arial" font-size="24px" font-style="normal" font-weight="normal" text-decoration="none" x="200" y="390">UNREGISTERED</text><text fill="#eeeeee" stroke="none" font-family="Arial" font-size="24px" font-style="normal" font-weight="normal" text-decoration="none" x="200" y="420">UNREGISTERED</text><text fill="#eeeeee" stroke="none" font-family="Arial" font-size="24px" font-style="normal" font-weight="normal" text-decoration="none" x="400" y="0">UNREGISTERED</text><text fill="#eeeeee" stroke="none" font-family="Arial" font-size="24px" font-style="normal" font-weight="normal" text-decoration="none" x="400" y="30">UNREGISTERED</text><text fill="#eeeeee" stroke="none" font-family="Arial" font-size="24px" font-style="normal" font-weight="normal" text-decoration="none" x="400" y="60">UNREGISTERED</text><text fill="#eeeeee" stroke="none" font-family="Arial" font-size="24px" font-style="normal" font-weight="normal" text-decoration="none" x="400" y="90">UNREGISTERED</text><text fill="#eeeeee" stroke="none" font-family="Arial" font-size="24px" font-style="normal" font-weight="normal" text-decoration="none" x="400" y="120">UNREGISTERED</text><text fill="#eeeeee" stroke="none" font-family="Arial" font-size="24px" font-style="normal" font-weight="normal" text-decoration="none" x="400" y="150">UNREGISTERED</text><text fill="#eeeeee" stroke="none" font-family="Arial" font-size="24px" font-style="normal" font-weight="normal" text-decoration="none" x="400" y="180">UNREGISTERED</text><text fill="#eeeeee" stroke="none" font-family="Arial" font-size="24px" font-style="normal" font-weight="normal" text-decoration="none" x="400" y="210">UNREGISTERED</text><text fill="#eeeeee" stroke="none" font-family="Arial" font-size="24px" font-style="normal" font-weight="normal" text-decoration="none" x="400" y="240">UNREGISTERED</text><text fill="#eeeeee" stroke="none" font-family="Arial" font-size="24px" font-style="normal" font-weight="normal" text-decoration="none" x="400" y="270">UNREGISTERED</text><text fill="#eeeeee" stroke="none" font-family="Arial" font-size="24px" font-style="normal" font-weight="normal" text-decoration="none" x="400" y="300">UNREGISTERED</text><text fill="#eeeeee" stroke="none" font-family="Arial" font-size="24px" font-style="normal" font-weight="normal" text-decoration="none" x="400" y="330">UNREGISTERED</text><text fill="#eeeeee" stroke="none" font-family="Arial" font-size="24px" font-style="normal" font-weight="normal" text-decoration="none" x="400" y="360">UNREGISTERED</text><text fill="#eeeeee" stroke="none" font-family="Arial" font-size="24px" font-style="normal" font-weight="normal" text-decoration="none" x="400" y="390">UNREGISTERED</text><text fill="#eeeeee" stroke="none" font-family="Arial" font-size="24px" font-style="normal" font-weight="normal" text-decoration="none" x="400" y="420">UNREGISTERED</text><text fill="#eeeeee" stroke="none" font-family="Arial" font-size="24px" font-style="normal" font-weight="normal" text-decoration="none" x="600" y="0">UNREGISTERED</text><text fill="#eeeeee" stroke="none" font-family="Arial" font-size="24px" font-style="normal" font-weight="normal" text-decoration="none" x="600" y="30">UNREGISTERED</text><text fill="#eeeeee" stroke="none" font-family="Arial" font-size="24px" font-style="normal" font-weight="normal" text-decoration="none" x="600" y="60">UNREGISTERED</text><text fill="#eeeeee" stroke="none" font-family="Arial" font-size="24px" font-style="normal" font-weight="normal" text-decoration="none" x="600" y="90">UNREGISTERED</text><text fill="#eeeeee" stroke="none" font-family="Arial" font-size="24px" font-style="normal" font-weight="normal" text-decoration="none" x="600" y="120">UNREGISTERED</text><text fill="#eeeeee" stroke="none" font-family="Arial" font-size="24px" font-style="normal" font-weight="normal" text-decoration="none" x="600" y="150">UNREGISTERED</text><text fill="#eeeeee" stroke="none" font-family="Arial" font-size="24px" font-style="normal" font-weight="normal" text-decoration="none" x="600" y="180">UNREGISTERED</text><text fill="#eeeeee" stroke="none" font-family="Arial" font-size="24px" font-style="normal" font-weight="normal" text-decoration="none" x="600" y="210">UNREGISTERED</text><text fill="#eeeeee" stroke="none" font-family="Arial" font-size="24px" font-style="normal" font-weight="normal" text-decoration="none" x="600" y="240">UNREGISTERED</text><text fill="#eeeeee" stroke="none" font-family="Arial" font-size="24px" font-style="normal" font-weight="normal" text-decoration="none" x="600" y="270">UNREGISTERED</text><text fill="#eeeeee" stroke="none" font-family="Arial" font-size="24px" font-style="normal" font-weight="normal" text-decoration="none" x="600" y="300">UNREGISTERED</text><text fill="#eeeeee" stroke="none" font-family="Arial" font-size="24px" font-style="normal" font-weight="normal" text-decoration="none" x="600" y="330">UNREGISTERED</text><text fill="#eeeeee" stroke="none" font-family="Arial" font-size="24px" font-style="normal" font-weight="normal" text-decoration="none" x="600" y="360">UNREGISTERED</text><text fill="#eeeeee" stroke="none" font-family="Arial" font-size="24px" font-style="normal" font-weight="normal" text-decoration="none" x="600" y="390">UNREGISTERED</text><text fill="#eeeeee" stroke="none" font-family="Arial" font-size="24px" font-style="normal" font-weight="normal" text-decoration="none" x="600" y="420">UNREGISTERED</text><text fill="#eeeeee" stroke="none" font-family="Arial" font-size="24px" font-style="normal" font-weight="normal" text-decoration="none" x="800" y="0">UNREGISTERED</text><text fill="#eeeeee" stroke="none" font-family="Arial" font-size="24px" font-style="normal" font-weight="normal" text-decoration="none" x="800" y="30">UNREGISTERED</text><text fill="#eeeeee" stroke="none" font-family="Arial" font-size="24px" font-style="normal" font-weight="normal" text-decoration="none" x="800" y="60">UNREGISTERED</text><text fill="#eeeeee" stroke="none" font-family="Arial" font-size="24px" font-style="normal" font-weight="normal" text-decoration="none" x="800" y="90">UNREGISTERED</text><text fill="#eeeeee" stroke="none" font-family="Arial" font-size="24px" font-style="normal" font-weight="normal" text-decoration="none" x="800" y="120">UNREGISTERED</text><text fill="#eeeeee" stroke="none" font-family="Arial" font-size="24px" font-style="normal" font-weight="normal" text-decoration="none" x="800" y="150">UNREGISTERED</text><text fill="#eeeeee" stroke="none" font-family="Arial" font-size="24px" font-style="normal" font-weight="normal" text-decoration="none" x="800" y="180">UNREGISTERED</text><text fill="#eeeeee" stroke="none" font-family="Arial" font-size="24px" font-style="normal" font-weight="normal" text-decoration="none" x="800" y="210">UNREGISTERED</text><text fill="#eeeeee" stroke="none" font-family="Arial" font-size="24px" font-style="normal" font-weight="normal" text-decoration="none" x="800" y="240">UNREGISTERED</text><text fill="#eeeeee" stroke="none" font-family="Arial" font-size="24px" font-style="normal" font-weight="normal" text-decoration="none" x="800" y="270">UNREGISTERED</text><text fill="#eeeeee" stroke="none" font-family="Arial" font-size="24px" font-style="normal" font-weight="normal" text-decoration="none" x="800" y="300">UNREGISTERED</text><text fill="#eeeeee" stroke="none" font-family="Arial" font-size="24px" font-style="normal" font-weight="normal" text-decoration="none" x="800" y="330">UNREGISTERED</text><text fill="#eeeeee" stroke="none" font-family="Arial" font-size="24px" font-style="normal" font-weight="normal" text-decoration="none" x="800" y="360">UNREGISTERED</text><text fill="#eeeeee" stroke="none" font-family="Arial" font-size="24px" font-style="normal" font-weight="normal" text-decoration="none" x="800" y="390">UNREGISTERED</text><text fill="#eeeeee" stroke="none" font-family="Arial" font-size="24px" font-style="normal" font-weight="normal" text-decoration="none" x="800" y="420">UNREGISTERED</text><g transform="translate(-294,-134) scale(1,1)"><path fill="#C0C0C0" stroke="none" d="M 311 176.5 C 311 171.2532944 315.2532944 167 320.5 167 C 325.7467056 167 330 171.2532944 330 176.5 C 330 181.7467056 325.7467056 186 320.5 186 C 315.2532944 186 311 181.7467056 311 176.5 Z" opacity="0.2"/></g><g transform="translate(-294,-134) scale(1,1)"><path fill="#000000" stroke="none" d="M 304 169.5 C 304 164.2532944 308.2532944 160 313.5 160 C 318.7467056 160 323 164.2532944 323 169.5 C 323 174.7467056 318.7467056 179 313.5 179 C 308.2532944 179 304 174.7467056 304 169.5 Z"/></g><g transform="translate(-294,-134) scale(1,1)"><path fill="#C0C0C0" stroke="none" d="M 473 159 L 512 159 Q 522 159 522 169 L 522 188 Q 522 198 512 198 L 473 198 Q 463 198 463 188 L 463 169 Q 463 159 473 159 Z" opacity="0.2"/></g><g transform="translate(-294,-134) scale(1,1)"><path fill="#ffffff" stroke="none" d="M 466 152 L 505 152 Q 515 152 515 162 L 515 181 Q 515 191 505 191 L 466 191 Q 456 191 456 181 L 456 162 Q 456 152 466 152 Z"/></g><g transform="translate(-294,-134) scale(1,1)"><path fill="none" stroke="#000000" d="M 466 152 L 505 152 Q 515 152 515 162 L 515 181 Q 515 191 505 191 L 466 191 Q 456 191 456 181 L 456 162 Q 456 152 466 152 Z" stroke-miterlimit="10"/></g><g transform="translate(-294,-134) scale(1,1)"><g><path fill="none" stroke="none"/><text fill="#000000" stroke="none" font-family="Arial" font-size="13px" font-style="normal" font-weight="bold" text-decoration="none" x="461.29638671875" y="170">iniciada</text></g></g><g transform="translate(-294,-134) scale(1,1)"><path fill="#C0C0C0" stroke="none" d="M 745 151 L 791.78271484375 151 Q 801.78271484375 151 801.78271484375 161 L 801.78271484375 180 Q 801.78271484375 190 791.78271484375 190 L 745 190 Q 735 190 735 180 L 735 161 Q 735 151 745 151 Z" opacity="0.2"/></g><g transform="translate(-294,-134) scale(1,1)"><path fill="#ffffff" stroke="none" d="M 738 144 L 784.78271484375 144 Q 794.78271484375 144 794.78271484375 154 L 794.78271484375 173 Q 794.78271484375 183 784.78271484375 183 L 738 183 Q 728 183 728 173 L 728 154 Q 728 144 738 144 Z"/></g><g transform="translate(-294,-134) scale(1,1)"><path fill="none" stroke="#000000" d="M 738 144 L 784.78271484375 144 Q 794.78271484375 144 794.78271484375 154 L 794.78271484375 173 Q 794.78271484375 183 784.78271484375 183 L 738 183 Q 728 183 728 173 L 728 154 Q 728 144 738 144 Z" stroke-miterlimit="10"/></g><g transform="translate(-294,-134) scale(1,1)"><g><path fill="none" stroke="none"/><text fill="#000000" stroke="none" font-family="Arial" font-size="13px" font-style="normal" font-weight="bold" text-decoration="none" x="732.5" y="162">En Curso</text></g></g><g transform="translate(-294,-134) scale(1,1)"><path fill="#C0C0C0" stroke="none" d="M 401 327 L 452.87353515625 327 Q 462.87353515625 327 462.87353515625 337 L 462.87353515625 356 Q 462.87353515625 366 452.87353515625 366 L 401 366 Q 391 366 391 356 L 391 337 Q 391 327 401 327 Z" opacity="0.2"/></g><g transform="translate(-294,-134) scale(1,1)"><path fill="#ffffff" stroke="none" d="M 394 320 L 445.87353515625 320 Q 455.87353515625 320 455.87353515625 330 L 455.87353515625 349 Q 455.87353515625 359 445.87353515625 359 L 394 359 Q 384 359 384 349 L 384 330 Q 384 320 394 320 Z"/></g><g transform="translate(-294,-134) scale(1,1)"><path fill="none" stroke="#000000" d="M 394 320 L 445.87353515625 320 Q 455.87353515625 320 455.87353515625 330 L 455.87353515625 349 Q 455.87353515625 359 445.87353515625 359 L 394 359 Q 384 359 384 349 L 384 330 Q 384 320 394 320 Z" stroke-miterlimit="10"/></g><g transform="translate(-294,-134) scale(1,1)"><g><path fill="none" stroke="none"/><text fill="#000000" stroke="none" font-family="Arial" font-size="13px" font-style="normal" font-weight="bold" text-decoration="none" x="388.5" y="338">cancelada</text></g></g><g transform="translate(-294,-134) scale(1,1)"><path fill="#C0C0C0" stroke="none" d="M 745 287 L 796.84814453125 287 Q 806.84814453125 287 806.84814453125 297 L 806.84814453125 316 Q 806.84814453125 326 796.84814453125 326 L 745 326 Q 735 326 735 316 L 735 297 Q 735 287 745 287 Z" opacity="0.2"/></g><g transform="translate(-294,-134) scale(1,1)"><path fill="#ffffff" stroke="none" d="M 738 280 L 789.84814453125 280 Q 799.84814453125 280 799.84814453125 290 L 799.84814453125 309 Q 799.84814453125 319 789.84814453125 319 L 738 319 Q 728 319 728 309 L 728 290 Q 728 280 738 280 Z"/></g><g transform="translate(-294,-134) scale(1,1)"><path fill="none" stroke="#000000" d="M 738 280 L 789.84814453125 280 Q 799.84814453125 280 799.84814453125 290 L 799.84814453125 309 Q 799.84814453125 319 789.84814453125 319 L 738 319 Q 728 319 728 309 L 728 290 Q 728 280 738 280 Z" stroke-miterlimit="10"/></g><g transform="translate(-294,-134) scale(1,1)"><g><path fill="none" stroke="none"/><text fill="#000000" stroke="none" font-family="Arial" font-size="13px" font-style="normal" font-weight="bold" text-decoration="none" x="732.5" y="298">Finalizada</text></g></g><g transform="translate(-294,-134) scale(1,1)"><path fill="#C0C0C0" stroke="none" d="M 601 391 L 658.64990234375 391 Q 668.64990234375 391 668.64990234375 401 L 668.64990234375 420 Q 668.64990234375 430 658.64990234375 430 L 601 430 Q 591 430 591 420 L 591 401 Q 591 391 601 391 Z" opacity="0.2"/></g><g transform="translate(-294,-134) scale(1,1)"><path fill="#ffffff" stroke="none" d="M 594 384 L 651.64990234375 384 Q 661.64990234375 384 661.64990234375 394 L 661.64990234375 413 Q 661.64990234375 423 651.64990234375 423 L 594 423 Q 584 423 584 413 L 584 394 Q 584 384 594 384 Z"/></g><g transform="translate(-294,-134) scale(1,1)"><path fill="none" stroke="#000000" d="M 594 384 L 651.64990234375 384 Q 661.64990234375 384 661.64990234375 394 L 661.64990234375 413 Q 661.64990234375 423 651.64990234375 423 L 594 423 Q 584 423 584 413 L 584 394 Q 584 384 594 384 Z" stroke-miterlimit="10"/></g><g transform="translate(-294,-134) scale(1,1)"><g><path fill="none" stroke="none"/><text fill="#000000" stroke="none" font-family="Arial" font-size="13px" font-style="normal" font-weight="bold" text-decoration="none" x="588.5" y="402">descartada</text></g></g><g transform="translate(-294,-134) scale(1,1)"><path fill="#C0C0C0" stroke="none" d="M 1025 295 L 1097.83349609375 295 Q 1107.83349609375 295 1107.83349609375 305 L 1107.83349609375 324 Q 1107.83349609375 334 1097.83349609375 334 L 1025 334 Q 1015 334 1015 324 L 1015 305 Q 1015 295 1025 295 Z" opacity="0.2"/></g><g transform="translate(-294,-134) scale(1,1)"><path fill="#ffffff" stroke="none" d="M 1018 288 L 1090.83349609375 288 Q 1100.83349609375 288 1100.83349609375 298 L 1100.83349609375 317 Q 1100.83349609375 327 1090.83349609375 327 L 1018 327 Q 1008 327 1008 317 L 1008 298 Q 1008 288 1018 288 Z"/></g><g transform="translate(-294,-134) scale(1,1)"><path fill="none" stroke="#000000" d="M 1018 288 L 1090.83349609375 288 Q 1100.83349609375 288 1100.83349609375 298 L 1100.83349609375 317 Q 1100.83349609375 327 1090.83349609375 327 L 1018 327 Q 1008 327 1008 317 L 1008 298 Q 1008 288 1018 288 Z" stroke-miterlimit="10"/></g><g transform="translate(-294,-134) scale(1,1)"><g><path fill="none" stroke="none"/><text fill="#000000" stroke="none" font-family="Arial" font-size="13px" font-style="normal" font-weight="bold" text-decoration="none" x="1012.5" y="306">Para escucha</text></g></g><g transform="translate(-294,-134) scale(1,1)"><path fill="#C0C0C0" stroke="none" d="M 793 431 L 833.30810546875 431 Q 843.30810546875 431 843.30810546875 441 L 843.30810546875 460 Q 843.30810546875 470 833.30810546875 470 L 793 470 Q 783 470 783 460 L 783 441 Q 783 431 793 431 Z" opacity="0.2"/></g><g transform="translate(-294,-134) scale(1,1)"><path fill="#ffffff" stroke="none" d="M 786 424 L 826.30810546875 424 Q 836.30810546875 424 836.30810546875 434 L 836.30810546875 453 Q 836.30810546875 463 826.30810546875 463 L 786 463 Q 776 463 776 453 L 776 434 Q 776 424 786 424 Z"/></g><g transform="translate(-294,-134) scale(1,1)"><path fill="none" stroke="#000000" d="M 786 424 L 826.30810546875 424 Q 836.30810546875 424 836.30810546875 434 L 836.30810546875 453 Q 836.30810546875 463 826.30810546875 463 L 786 463 Q 776 463 776 453 L 776 434 Q 776 424 786 424 Z" stroke-miterlimit="10"/></g><g transform="translate(-294,-134) scale(1,1)"><g><path fill="none" stroke="none"/><text fill="#000000" stroke="none" font-family="Arial" font-size="13px" font-style="normal" font-weight="bold" text-decoration="none" x="780.5" y="441.5">correcta</text></g></g><g transform="translate(-294,-134) scale(1,1)"><path fill="#C0C0C0" stroke="none" d="M 1017 503 L 1122.3271484375 503 Q 1132.3271484375 503 1132.3271484375 513 L 1132.3271484375 532 Q 1132.3271484375 542 1122.3271484375 542 L 1017 542 Q 1007 542 1007 532 L 1007 513 Q 1007 503 1017 503 Z" opacity="0.2"/></g><g transform="translate(-294,-134) scale(1,1)"><path fill="#ffffff" stroke="none" d="M 1010 496 L 1115.3271484375 496 Q 1125.3271484375 496 1125.3271484375 506 L 1125.3271484375 525 Q 1125.3271484375 535 1115.3271484375 535 L 1010 535 Q 1000 535 1000 525 L 1000 506 Q 1000 496 1010 496 Z"/></g><g transform="translate(-294,-134) scale(1,1)"><path fill="none" stroke="#000000" d="M 1010 496 L 1115.3271484375 496 Q 1125.3271484375 496 1125.3271484375 506 L 1125.3271484375 525 Q 1125.3271484375 535 1115.3271484375 535 L 1010 535 Q 1000 535 1000 525 L 1000 506 Q 1000 496 1010 496 Z" stroke-miterlimit="10"/></g><g transform="translate(-294,-134) scale(1,1)"><g><path fill="none" stroke="none"/><text fill="#000000" stroke="none" font-family="Arial" font-size="13px" font-style="normal" font-weight="bold" text-decoration="none" x="1004.5" y="514">conObservaciones</text></g></g><g transform="translate(-294,-134) scale(1,1)"><path fill="none" stroke="#000000" d="M 324 169 L 455 171" stroke-miterlimit="10"/></g><g transform="translate(-294,-134) scale(1,1)"><path fill="none" stroke="#000000" d="M 444.77424936926127 175.0538899883873 L 455 171 L 444.9027692853091 166.63583548725498" stroke-miterlimit="10"/></g><g transform="translate(-294,-134) scale(1,1)"><g><path fill="none" stroke="none"/><text fill="#000000" stroke="none" font-family="Arial" font-size="13px" font-style="normal" font-weight="normal" text-decoration="none" x="374.5" y="158.5">crear</text></g></g><g transform="translate(-294,-134) scale(1,1)"><path fill="none" stroke="#000000" d="M 516 170 L 727 164" stroke-miterlimit="10"/></g><g transform="translate(-294,-134) scale(1,1)"><path fill="none" stroke="#000000" d="M 716.9610850182687 168.4966861119685 L 727 164 L 716.7217778980223 160.08105238330285" stroke-miterlimit="10"/></g><g transform="translate(-294,-134) scale(1,1)"><g><path fill="none" stroke="none"/><text fill="#000000" stroke="none" font-family="Arial" font-size="13px" font-style="normal" font-weight="normal" text-decoration="none" x="570.5" y="157">solicitarOperador</text></g></g><g transform="translate(-294,-134) scale(1,1)"><path fill="none" stroke="#000000" d="M 761 184 L 763 279" stroke-miterlimit="10"/></g><g transform="translate(-294,-134) scale(1,1)"><path fill="none" stroke="#000000" d="M 758.577511138714 268.92817830420927 L 763 279 L 766.9946815564581 268.7509747164673" stroke-miterlimit="10"/></g><g transform="translate(-294,-134) scale(1,1)"><g><path fill="none" stroke="none"/><text fill="#000000" stroke="none" font-family="Arial" font-size="13px" font-style="normal" font-weight="normal" text-decoration="none" x="667.5" y="242">finLlamada</text></g></g><g transform="translate(-294,-134) scale(1,1)"><path fill="none" stroke="#000000" d="M 477 192 L 427 319" stroke-miterlimit="10"/></g><g transform="translate(-294,-134) scale(1,1)"><path fill="none" stroke="#000000" d="M 426.80602694918304 308.00171038499366 L 427 319 L 434.6398055086245 311.0858751721753" stroke-miterlimit="10"/></g><g transform="translate(-294,-134) scale(1,1)"><g><path fill="none" stroke="none"/><text fill="#000000" stroke="none" font-family="Arial" font-size="13px" font-style="normal" font-weight="normal" text-decoration="none" x="451.5" y="274">cancelada</text></g></g><g transform="translate(-294,-134) scale(1,1)"><path fill="none" stroke="#000000" d="M 735 320 L 649 383" stroke-miterlimit="10"/></g><g transform="translate(-294,-134) scale(1,1)"><path fill="none" stroke="#000000" d="M 654.7106177258174 373.5984658066048 L 649 383 L 659.6859051003966 380.39012793698265" stroke-miterlimit="10"/></g><g transform="translate(-294,-134) scale(1,1)"><g><path fill="none" stroke="none"/><text fill="#000000" stroke="none" font-family="Arial" font-size="13px" font-style="normal" font-weight="normal" text-decoration="none" x="626.5" y="346">descartar</text></g></g><g transform="translate(-294,-134) scale(1,1)"><path fill="none" stroke="#000000" d="M 801 300 L 1007 306" stroke-miterlimit="10"/></g><g transform="translate(-294,-134) scale(1,1)"><path fill="none" stroke="#000000" d="M 996.7190777444882 309.91185858334933 L 1007 306 L 996.9641884249469 301.4963918876051" stroke-miterlimit="10"/></g><g transform="translate(-294,-134) scale(1,1)"><g><path fill="none" stroke="none"/><text fill="#000000" stroke="none" font-family="Arial" font-size="13px" font-style="normal" font-weight="normal" text-decoration="none" x="884.5" y="266">seleccionada</text></g></g><g transform="translate(-294,-134) scale(1,1)"><path fill="none" stroke="#000000" d="M 1016 328 L 837 426" stroke-miterlimit="10"/></g><g transform="translate(-294,-134) scale(1,1)"><path fill="none" stroke="#000000" d="M 843.8926285662661 417.42727164506584 L 837 426 L 847.935658752451 424.8119900463628" stroke-miterlimit="10"/></g><g transform="translate(-294,-134) scale(1,1)"><g><path fill="none" stroke="none"/><text fill="#000000" stroke="none" font-family="Arial" font-size="13px" font-style="normal" font-weight="normal" text-decoration="none" x="814.5" y="352">registrarCorrecta</text></g></g><g transform="translate(-294,-134) scale(1,1)"><path fill="none" stroke="#000000" d="M 1055 328 L 1061 495" stroke-miterlimit="10"/></g><g transform="translate(-294,-134) scale(1,1)"><path fill="none" stroke="#000000" d="M 1056.4283058930184 484.9950205901166 L 1061 495 L 1064.8419128818032 484.6927353090825" stroke-miterlimit="10"/></g><g transform="translate(-294,-134) scale(1,1)"><g><path fill="none" stroke="none"/><text fill="#000000" stroke="none" font-family="Arial" font-size="13px" font-style="normal" font-weight="normal" text-decoration="none" x="1070.5" y="435">registrarObs</text></g></g><g transform="translate(-294,-134) scale(1,1)"><path fill="#C0C0C0" stroke="none" d="M 551 563.5 C 551 556.59644 556.59644 551 563.5 551 C 570.40356 551 576 556.59644 576 563.5 C 576 570.40356 570.40356 576 563.5 576 C 556.59644 576 551 570.40356 551 563.5 Z" opacity="0.2"/></g><g transform="translate(-294,-134) scale(1,1)"><path fill="none" stroke="#000000" d="M 544 556.5 C 544 549.59644 549.59644 544 556.5 544 C 563.40356 544 569 549.59644 569 556.5 C 569 563.40356 563.40356 569 556.5 569 C 549.59644 569 544 563.40356 544 556.5 Z" stroke-miterlimit="10"/></g><g transform="translate(-294,-134) scale(1,1)"><path fill="#000000" stroke="none" d="M 549 556.5 C 549 552.357864 552.357864 549 556.5 549 C 560.642136 549 564 552.357864 564 556.5 C 564 560.642136 560.642136 564 556.5 564 C 552.357864 564 549 560.642136 549 556.5 Z"/></g><g transform="translate(-294,-134) scale(1,1)"><path fill="none" stroke="#000000" d="M 613 424 L 562 543" stroke-miterlimit="10"/></g><g transform="translate(-294,-134) scale(1,1)"><path fill="none" stroke="#000000" d="M 562.1341164273886 532.0008176311189 L 562 543 L 569.8724310758183 535.3172381947317" stroke-miterlimit="10"/></g><g transform="translate(-294,-134) scale(1,1)"><path fill="none" stroke="#000000" d="M 775 457 L 570 550" stroke-miterlimit="10"/></g><g transform="translate(-294,-134) scale(1,1)"><path fill="none" stroke="#000000" d="M 577.5157556007088 541.9679754886819 L 570 550 L 580.9939407496115 549.6349427523924" stroke-miterlimit="10"/></g><g transform="translate(-294,-134) scale(1,1)"><path fill="none" stroke="#000000" d="M 999 520 L 570 555" stroke-miterlimit="10"/></g><g transform="translate(-294,-134) scale(1,1)"><path fill="none" stroke="#000000" d="M 579.7867241949028 549.9780452478241 L 570 555 L 580.4713173038939 558.3692007837426" stroke-miterlimit="10"/></g><g transform="translate(-294,-134) scale(1,1)"><path fill="none" stroke="#000000" d="M 432 360 L 548 543" stroke-miterlimit="10"/></g><g transform="translate(-294,-134) scale(1,1)"><path fill="none" stroke="#000000" d="M 539.0036900039753 536.670196965511 L 548 543 L 546.114494845417 532.1628015468923" stroke-miterlimit="10"/></g></g></svg>